<?xml version="1.0" encoding="UTF-8" standalone="no"?>
<!-- Created with Inkscape (http://www.inkscape.org/) -->

<svg
   xmlns:dc="http://purl.org/dc/elements/1.1/"
   xmlns:cc="http://creativecommons.org/ns#"
   xmlns:rdf="http://www.w3.org/1999/02/22-rdf-syntax-ns#"
   xmlns:svg="http://www.w3.org/2000/svg"
   xmlns="http://www.w3.org/2000/svg"
   xmlns:sodipodi="http://sodipodi.sourceforge.net/DTD/sodipodi-0.dtd"
   xmlns:inkscape="http://www.inkscape.org/namespaces/inkscape"
   width="1920"
   height="1080"
   viewBox="0 0 1919.9999 1080"
   id="svg2"
   version="1.1"
   inkscape:version="0.91 r13725"
   sodipodi:docname="JianYuWallpaper.svg"
   inkscape:export-filename="/home/wyatt/Documents/JianYuIcon/JianYuWallpaper.png"
   inkscape:export-xdpi="90"
   inkscape:export-ydpi="90">
  <defs
     id="defs4" />
  <sodipodi:namedview
     id="base"
     pagecolor="#ffffff"
     bordercolor="#666666"
     borderopacity="1.0"
     inkscape:pageopacity="0.0"
     inkscape:pageshadow="2"
     inkscape:zoom="0.35"
     inkscape:cx="390.89575"
     inkscape:cy="568.9652"
     inkscape:document-units="px"
     inkscape:current-layer="layer1-6"
     showgrid="false"
     units="px"
     inkscape:snap-page="true"
     inkscape:snap-intersection-paths="false"
     inkscape:object-nodes="true"
     inkscape:window-width="1366"
     inkscape:window-height="704"
     inkscape:window-x="0"
     inkscape:window-y="27"
     inkscape:window-maximized="1" />
  <metadata
     id="metadata7">
    <rdf:RDF>
      <cc:Work
         rdf:about="">
        <dc:format>image/svg+xml</dc:format>
        <dc:type
           rdf:resource="http://purl.org/dc/dcmitype/StillImage" />
        <dc:title></dc:title>
      </cc:Work>
    </rdf:RDF>
  </metadata>
  <g
     inkscape:label="Layer 1"
     inkscape:groupmode="layer"
     id="layer1"
     transform="translate(0,27.63784)">
    <rect
       y="512.36218"
       x="-6.1035156e-05"
       height="540"
       width="1920"
       id="rect4192"
       style="fill:#fbbc05;fill-opacity:1;stroke:none;stroke-width:10;stroke-miterlimit:4;stroke-dasharray:none;stroke-opacity:1" />
    <rect
       style="fill:#4285f4;fill-opacity:1;stroke:none;stroke-width:10;stroke-miterlimit:4;stroke-dasharray:none;stroke-opacity:1"
       id="rect4190"
       width="1920"
       height="540"
       x="-6.1035156e-05"
       y="-27.63784" />
    <g
       transform="translate(696.52408,-284.00003)"
       id="layer1-6"
       inkscape:label="Layer 1">
      <g
         transform="translate(2689.3453,531.97924)"
         id="g5918">
        <g
           id="g5932"
           transform="translate(0.35714286,8.2142857)">
          <path
             id="path5853"
             d="m -2484.3574,164.63867 c -0.5823,0.0225 -1.1985,5.7e-4 -1.7774,0.0274 -4.5761,0.21171 -9.0461,0.55812 -13.4101,1.02929 -4.3641,0.47118 -8.6218,1.06844 -12.7774,1.7793 -4.1555,0.71085 -8.2075,1.53604 -12.1582,2.4668 -3.9507,0.93075 -7.8014,1.96677 -11.5507,3.09765 -3.7495,1.13088 -7.3994,2.35675 -10.9512,3.66797 -3.5518,1.31122 -7.0056,2.7079 -10.3633,4.17969 -3.3578,1.47179 -6.6179,3.01829 -9.7852,4.63086 -3.1673,1.61257 -6.2422,3.28986 -9.2226,5.02344 -2.9805,1.73357 -5.8669,3.52457 -8.6641,5.35937 -2.7972,1.8348 -5.5035,3.71461 -8.1211,5.63086 -1.9503,1.42775 -3.6067,2.95068 -5.459,4.41406 a 179.80716,179.80716 0 0 0 -7.4355,50.22461 179.80716,179.80716 0 0 0 37.2578,109.39063 c 2.2535,-2.06761 4.4553,-4.18692 6.8066,-6.1543 3.964,-3.31634 8.0684,-6.48551 12.3184,-9.48828 4.25,-3.00277 8.6456,-5.83914 13.1914,-8.49219 4.5459,-2.65305 9.2404,-5.12343 14.0918,-7.39062 1.1749,-0.54907 2.4454,-0.97114 3.6387,-1.4961 0.1521,-4.71199 0.3685,-9.48044 0.6933,-14.34375 0.3518,-5.26526 0.8069,-10.6191 1.3692,-16.06445 0.5623,-5.44535 1.2323,-10.98109 2.0137,-16.60938 0.6063,-4.36782 1.3377,-8.84045 2.08,-13.32031 a 30.304577,30.304577 0 0 1 -2.5879,0.13086 30.304577,30.304577 0 0 1 -2.1445,-0.0762 30.304577,30.304577 0 0 1 -3.0058,-0.36524 30.304577,30.304577 0 0 1 -2.9571,-0.6621 30.304577,30.304577 0 0 1 -2.873,-0.95508 30.304577,30.304577 0 0 1 -2.7656,-1.23828 30.304577,30.304577 0 0 1 -2.627,-1.50782 30.304577,30.304577 0 0 1 -2.4648,-1.76172 30.304577,30.304577 0 0 1 -2.2754,-2 30.304577,30.304577 0 0 1 -2.0645,-2.21484 30.304577,30.304577 0 0 1 -1.834,-2.41211 30.304577,30.304577 0 0 1 -1.584,-2.58203 30.304577,30.304577 0 0 1 -1.3164,-2.72852 30.304577,30.304577 0 0 1 -1.039,-2.8457 30.304577,30.304577 0 0 1 -0.75,-2.93359 30.304577,30.304577 0 0 1 -0.4512,-2.9961 30.304577,30.304577 0 0 1 -0.1523,-3.02539 30.304577,30.304577 0 0 1 0.076,-2.14453 30.304577,30.304577 0 0 1 0.3653,-3.00586 30.304577,30.304577 0 0 1 0.6621,-2.95703 30.304577,30.304577 0 0 1 0.957,-2.87304 30.304577,30.304577 0 0 1 1.2363,-2.76563 30.304577,30.304577 0 0 1 1.5078,-2.62695 30.304577,30.304577 0 0 1 1.7618,-2.46485 30.304577,30.304577 0 0 1 2,-2.27539 30.304577,30.304577 0 0 1 2.2148,-2.06445 30.304577,30.304577 0 0 1 2.4121,-1.83399 30.304577,30.304577 0 0 1 2.582,-1.58398 30.304577,30.304577 0 0 1 2.7286,-1.31641 30.304577,30.304577 0 0 1 2.8457,-1.03906 30.304577,30.304577 0 0 1 2.9336,-0.75 30.304577,30.304577 0 0 1 2.9961,-0.45117 30.304577,30.304577 0 0 1 3.0253,-0.15234 30.304577,30.304577 0 0 1 0.4805,0.004 30.304577,30.304577 0 0 1 3.0215,0.20313 30.304577,30.304577 0 0 1 2.9883,0.5039 30.304577,30.304577 0 0 1 2.9219,0.80079 30.304577,30.304577 0 0 1 2.8261,1.08789 30.304577,30.304577 0 0 1 2.7051,1.36328 c 0.2012,-0.74824 0.3636,-1.46781 0.5684,-2.21875 1.7421,-6.38837 3.6136,-12.87547 5.6172,-19.46094 2.0034,-6.58548 4.1388,-13.26927 6.4121,-20.05469 1.0246,-3.05859 2.1811,-6.21277 3.2617,-9.3125 z"
             style="fill:#ea4335;fill-opacity:1;stroke:#000000;stroke-width:10;stroke-miterlimit:4;stroke-dasharray:none;stroke-opacity:1"
             inkscape:connector-curvature="0" />
          <path
             id="path5843"
             d="m -2285.6582,246.39648 c -2.0821,2.25118 -4.1071,4.57519 -6.2461,6.75196 -4.3002,4.37611 -8.7157,8.59668 -13.248,12.63867 -4.5324,4.04198 -9.1811,7.90615 -13.9493,11.57031 -4.7681,3.66416 -9.6563,7.12846 -14.664,10.3711 -3.976,2.57453 -8.0879,4.89362 -12.2168,7.17773 2.78,5.45082 5.5912,10.81424 8.4453,16.0625 3.0071,5.52972 6.0549,10.94859 9.1387,16.25781 3.0837,5.30922 6.2028,10.51031 9.3574,15.60352 3.1546,5.0932 6.3447,10.07926 9.5644,14.96094 4.7975,7.2739 9.7262,14.08373 14.6524,20.90039 a 179.80716,179.80716 0 0 0 45.4297,-91.125 c -2.5,-3.26009 -4.8857,-6.48391 -7.5879,-9.79688 -4.6254,-5.67087 -9.5466,-11.39797 -14.7676,-17.10547 -4.3843,-4.79285 -9.1014,-9.5458 -13.9082,-14.26758 z"
             style="fill:#4285f4;fill-opacity:1;stroke:#000000;stroke-width:10;stroke-miterlimit:4;stroke-dasharray:none;stroke-opacity:1"
             inkscape:connector-curvature="0" />
          <path
             id="path5832"
             d="m -2518.7285,332.53906 c -0.013,0.38945 -0.045,0.79713 -0.057,1.18555 -0.1496,5.088 -0.2003,10.08837 -0.1562,15.00195 0.044,4.91358 0.1829,9.74043 0.4121,14.48242 0.2292,4.742 0.5491,9.39941 0.9551,13.97266 0.4059,4.57325 0.8984,9.06337 1.4726,13.4707 0.5743,4.40734 1.2309,8.73231 1.9649,12.97657 0.6031,3.4871 1.2903,6.8849 1.9961,10.26367 a 179.80716,179.80716 0 0 0 85.914,22.08398 179.80716,179.80716 0 0 0 131.4024,-57.28515 c -4.9262,-6.81666 -9.8549,-13.62649 -14.6524,-20.90039 -3.2197,-4.88168 -6.4098,-9.86774 -9.5644,-14.96094 -3.1546,-5.09321 -6.2737,-10.2943 -9.3574,-15.60352 -3.0838,-5.30922 -6.1316,-10.72809 -9.1387,-16.25781 -2.8541,-5.24826 -5.6653,-10.61168 -8.4453,-16.0625 -1.0715,0.59273 -2.088,1.29103 -3.1699,1.86328 -5.2512,2.77741 -10.6248,5.31159 -16.1231,7.58008 -5.4982,2.26848 -11.122,4.27047 -16.8711,5.98633 -5.7491,1.71586 -11.6251,3.14608 -17.6289,4.26562 -3.0019,0.55977 -6.0353,1.04087 -9.1016,1.44336 -3.0662,0.4025 -6.1638,0.72509 -9.2949,0.96485 -3.1311,0.23975 -6.2958,0.39719 -9.4922,0.46875 -3.1963,0.0716 -6.4253,0.0572 -9.6875,-0.0449 -6.5243,-0.2042 -12.8687,-0.11626 -19.039,0.2461 -6.1704,0.36235 -12.1661,0.9998 -17.9922,1.89258 -5.8261,0.89277 -11.4831,2.04263 -16.9746,3.42968 -5.4915,1.38706 -10.8178,3.01221 -15.9844,4.85743 -3.9153,1.39832 -7.6528,3.037 -11.3867,4.67968 z"
             style="fill:#4285f4;fill-opacity:1;stroke:#000000;stroke-width:10;stroke-miterlimit:4;stroke-dasharray:none;stroke-opacity:1"
             inkscape:connector-curvature="0" />
          <path
             id="path5848"
             d="m -2449.0195,77.992188 a 179.80716,179.80716 0 0 0 -149.5782,127.953122 c 1.8523,-1.46338 3.5087,-2.98631 5.459,-4.41406 2.6176,-1.91625 5.3239,-3.79606 8.1211,-5.63086 2.7972,-1.8348 5.6836,-3.6258 8.6641,-5.35937 2.9804,-1.73358 6.0553,-3.41087 9.2226,-5.02344 3.1673,-1.61257 6.4274,-3.15907 9.7852,-4.63086 3.3577,-1.47179 6.8115,-2.86847 10.3633,-4.17969 3.5518,-1.31122 7.2017,-2.53709 10.9512,-3.66797 3.7494,-1.13088 7.6,-2.1669 11.5507,-3.09765 3.9507,-0.93076 8.0027,-1.75595 12.1582,-2.4668 4.1556,-0.71086 8.4133,-1.30812 12.7774,-1.7793 4.364,-0.47117 8.834,-0.81758 13.4101,-1.02929 0.5789,-0.0268 1.1951,-0.005 1.7774,-0.0274 1.3167,-3.77695 2.5712,-7.50945 3.9726,-11.34765 2.5516,-6.98821 5.2458,-14.07767 8.084,-21.27149 2.8383,-7.19382 5.8216,-14.49225 8.9551,-21.89453 3.1334,-7.40228 6.4164,-14.909868 9.8535,-22.523438 1.4262,-3.159073 2.9932,-6.41358 4.4727,-9.609374 z"
             style="fill:#fbbc05;fill-opacity:1;stroke:#000000;stroke-width:10;stroke-miterlimit:4;stroke-dasharray:none;stroke-opacity:1"
             inkscape:connector-curvature="0" />
          <path
             id="path5869"
             d="m -2484.7531,240.42216 a 30.304577,30.304577 0 0 0 -0.3184,-3.01244 30.304577,30.304577 0 0 0 -0.6154,-2.96507 30.304577,30.304577 0 0 0 -0.9086,-2.89018 30.304577,30.304577 0 0 0 -1.1942,-2.78527 30.304577,30.304577 0 0 0 -1.465,-2.65035 30.304577,30.304577 0 0 0 -0.2568,-0.40616 30.304577,30.304577 0 0 0 -1.766,-2.46109 30.304577,30.304577 0 0 0 -2.0014,-2.27476 30.304577,30.304577 0 0 0 -2.2188,-2.06042 30.304577,30.304577 0 0 0 -2.4143,-1.83002 30.304577,30.304577 0 0 0 -2.584,-1.58141 30.304577,30.304577 0 0 0 -2.7297,-1.3133 30.304577,30.304577 0 0 0 -2.8479,-1.03509 30.304577,30.304577 0 0 0 -2.9348,-0.74444 30.304577,30.304577 0 0 0 -2.9958,-0.44964 30.304577,30.304577 0 0 0 -3.0262,-0.1468 30.304577,30.304577 0 0 0 -3.025,0.15452 30.304577,30.304577 0 0 0 -2.9946,0.45787 30.304577,30.304577 0 0 0 -2.9337,0.75085 30.304577,30.304577 0 0 0 -2.8446,1.04426 30.304577,30.304577 0 0 0 -2.725,1.32023 30.304577,30.304577 0 0 0 -1.8442,1.09715 30.304577,30.304577 0 0 0 -2.4612,1.76599 30.304577,30.304577 0 0 0 -2.2747,2.00144 30.304577,30.304577 0 0 0 -2.0604,2.21881 30.304577,30.304577 0 0 0 -1.8301,2.41422 30.304577,30.304577 0 0 0 -1.5813,2.584 30.304577,30.304577 0 0 0 -1.3133,2.72968 30.304577,30.304577 0 0 0 -1.0351,2.84788 30.304577,30.304577 0 0 0 -0.7445,2.93487 30.304577,30.304577 0 0 0 -0.4496,2.99587 30.304577,30.304577 0 0 0 -0.1468,3.02612 30.304577,30.304577 0 0 0 0.1546,3.02502 30.304577,30.304577 0 0 0 0.4561,2.99563 30.304577,30.304577 0 0 0 0.7525,2.9326 30.304577,30.304577 0 0 0 1.0443,2.84469 30.304577,30.304577 0 0 0 1.3202,2.72491 30.304577,30.304577 0 0 0 1.097,1.84428 30.304577,30.304577 0 0 0 1.5111,2.10497 c 1.203,-0.51974 2.3404,-1.06019 3.5574,-1.57519 5.4344,-2.29956 11.0092,-4.55091 16.7299,-6.75415 5.7208,-2.20325 11.5873,-4.35664 17.6013,-6.45804 5.3071,-1.85434 10.7766,-3.65086 16.3171,-5.422 z"
             style="fill:#cccccc;stroke:#000000;stroke-width:10;stroke-miterlimit:4;stroke-dasharray:none;stroke-opacity:1"
             inkscape:connector-curvature="0" />
          <path
             id="path5872"
             d="m -2535.4014,259.05634 c -1.217,0.51495 -2.3535,1.05711 -3.5563,1.57688 a 30.304577,30.304577 0 0 0 1.969,2.30024 30.304577,30.304577 0 0 0 2.1874,2.09458 30.304577,30.304577 0 0 0 2.3872,1.86374 30.304577,30.304577 0 0 0 2.5617,1.61888 30.304577,30.304577 0 0 0 2.7101,1.35146 30.304577,30.304577 0 0 0 2.8315,1.07822 30.304577,30.304577 0 0 0 2.9255,0.78767 30.304577,30.304577 0 0 0 2.9881,0.49174 30.304577,30.304577 0 0 0 3.0222,0.19111 30.304577,30.304577 0 0 0 3.027,-0.1117 30.304577,30.304577 0 0 0 3.0021,-0.41379 30.304577,30.304577 0 0 0 2.9443,-0.70898 30.304577,30.304577 0 0 0 2.8597,-1.00282 30.304577,30.304577 0 0 0 2.7444,-1.27931 30.304577,30.304577 0 0 0 2.2137,-1.29544 30.304577,30.304577 0 0 0 2.4601,-1.76767 30.304577,30.304577 0 0 0 2.271,-2.00357 30.304577,30.304577 0 0 0 2.0621,-2.21987 30.304577,30.304577 0 0 0 1.8272,-2.41493 30.304577,30.304577 0 0 0 1.5776,-2.58622 30.304577,30.304577 0 0 0 1.3123,-2.73128 30.304577,30.304577 0 0 0 1.0335,-2.84682 30.304577,30.304577 0 0 0 0.7434,-2.93647 30.304577,30.304577 0 0 0 0.4469,-2.99641 30.304577,30.304577 0 0 0 0.1451,-3.02514 30.304577,30.304577 0 0 0 -0.048,-1.64828 c -5.5405,1.77114 -11.01,3.56765 -16.3171,5.42199 -6.014,2.1014 -11.8805,4.2548 -17.6013,6.45804 -5.7207,2.20324 -11.2955,4.4546 -16.7299,6.75415 z"
             style="fill:#ffffff;stroke:#000000;stroke-width:10;stroke-miterlimit:4;stroke-dasharray:none;stroke-opacity:1"
             inkscape:connector-curvature="0" />
          <path
             id="path5863"
             d="m -2472.084,164.44531 c -4.1856,-0.059 -8.2525,0.0383 -12.2734,0.19336 -1.0806,3.09973 -2.2371,6.25391 -3.2617,9.3125 -2.2733,6.78542 -4.4088,13.46921 -6.4121,20.05469 -2.0037,6.58547 -3.8751,13.07257 -5.6172,19.46094 -0.2048,0.75094 -0.3672,1.47051 -0.5684,2.21875 a 30.304577,30.304577 0 0 1 1.4121,0.85156 30.304577,30.304577 0 0 1 2.4649,1.75977 30.304577,30.304577 0 0 1 2.2773,1.99804 30.304577,30.304577 0 0 1 2.0664,2.21485 30.304577,30.304577 0 0 1 1.834,2.41015 30.304577,30.304577 0 0 1 1.5859,2.58203 30.304577,30.304577 0 0 1 1.3203,2.72657 30.304577,30.304577 0 0 1 1.0411,2.84375 30.304577,30.304577 0 0 1 0.75,2.93554 30.304577,30.304577 0 0 1 0.455,2.99414 30.304577,30.304577 0 0 1 0.1543,3.02539 30.304577,30.304577 0 0 1 -0.1093,2.5625 30.304577,30.304577 0 0 1 -0.4102,3 30.304577,30.304577 0 0 1 -0.7051,2.94727 30.304577,30.304577 0 0 1 -0.998,2.85937 30.304577,30.304577 0 0 1 -1.2774,2.74805 30.304577,30.304577 0 0 1 -1.5449,2.60547 30.304577,30.304577 0 0 1 -1.7969,2.4375 30.304577,30.304577 0 0 1 -2.0312,2.24609 30.304577,30.304577 0 0 1 -2.2461,2.03321 30.304577,30.304577 0 0 1 -2.4395,1.79687 30.304577,30.304577 0 0 1 -2.6035,1.54688 30.304577,30.304577 0 0 1 -2.748,1.27734 30.304577,30.304577 0 0 1 -2.8594,0.99805 30.304577,30.304577 0 0 1 -2.9453,0.70508 30.304577,30.304577 0 0 1 -3,0.41015 c 0,1e-4 0,-10e-5 0,0 -0.7423,4.47986 -1.4737,8.95249 -2.08,13.32031 -0.7814,5.62829 -1.4514,11.16403 -2.0137,16.60938 -0.5623,5.44535 -1.0174,10.79919 -1.3692,16.06445 -0.3248,4.86331 -0.5412,9.63176 -0.6933,14.34375 3.7339,-1.64268 7.4714,-3.28138 11.3867,-4.67968 5.1666,-1.8452 10.4929,-3.47037 15.9844,-4.85743 5.4915,-1.38705 11.1485,-2.53691 16.9746,-3.42968 5.8261,-0.89278 11.8218,-1.53023 17.9922,-1.89258 6.1703,-0.36236 12.5147,-0.4503 19.039,-0.2461 3.2622,0.10211 6.4912,0.11648 9.6875,0.0449 3.1964,-0.0716 6.3611,-0.229 9.4922,-0.46875 3.1311,-0.23976 6.2287,-0.56235 9.2949,-0.96485 3.0663,-0.40249 6.0997,-0.88359 9.1016,-1.44336 6.0038,-1.11954 11.8798,-2.54976 17.6289,-4.26562 5.7491,-1.71586 11.3729,-3.71785 16.8711,-5.98633 5.4983,-2.26849 10.8719,-4.80267 16.1231,-7.58008 1.0819,-0.57225 2.0984,-1.27055 3.1699,-1.86328 -0.1491,-0.29233 -0.3043,-0.56841 -0.4531,-0.86133 -2.9248,-5.7547 -5.8079,-11.62324 -8.6446,-17.60742 -2.8366,-5.98418 -5.6283,-12.0846 -8.3711,-18.30273 -2.7427,-6.21814 -5.437,-12.55515 -8.08,-19.01172 -2.6432,-6.45658 -5.2337,-13.03291 -7.7715,-19.73243 -2.5378,-6.6995 -5.0226,-13.52183 -7.4493,-20.46874 -2.4266,-6.94692 -4.7956,-14.01799 -7.1054,-21.2168 0,-0.004 0,-0.008 0,-0.0117 -1.5258,-0.51344 -3.0082,-1.09064 -4.5528,-1.57617 -4.4379,-1.3951 -8.9516,-2.67205 -13.5449,-3.82422 -4.5933,-1.15217 -9.2664,-2.17974 -14.0156,-3.07031 -5.4604,-1.02393 -10.8052,-1.87325 -16.0391,-2.5586 -5.2339,-0.68534 -10.3561,-1.20572 -15.3672,-1.57226 -5.011,-0.36655 -9.9113,-0.57896 -14.7031,-0.64649 z"
             style="fill:#ea4335;fill-opacity:1;stroke:#000000;stroke-width:10;stroke-miterlimit:4;stroke-dasharray:none;stroke-opacity:1"
             inkscape:connector-curvature="0" />
          <path
             id="path5829"
             d="m -2426.2266,76.361328 a 179.80716,179.80716 0 0 0 -22.7929,1.63086 c -1.4795,3.195795 -3.0465,6.450301 -4.4727,9.609374 -3.4371,7.613569 -6.7201,15.121158 -9.8535,22.523438 -3.1335,7.40228 -6.1168,14.70071 -8.9551,21.89453 -2.8382,7.19382 -5.5324,14.28328 -8.084,21.27149 -1.4014,3.8382 -2.6559,7.5707 -3.9726,11.34765 4.0209,-0.15503 8.0878,-0.25234 12.2734,-0.19336 4.7918,0.0675 9.6921,0.27994 14.7031,0.64649 5.0111,0.36654 10.1333,0.88692 15.3672,1.57226 5.2339,0.68535 10.5787,1.53467 16.0391,2.5586 4.7492,0.89057 9.4223,1.91814 14.0156,3.07031 4.5933,1.15217 9.107,2.42912 13.5449,3.82422 1.5446,0.48553 3.027,1.06273 4.5528,1.57617 -2.3086,-7.19509 -4.558,-14.51755 -6.7442,-21.96875 -2.1872,-7.4552 -4.3122,-15.03979 -6.3711,-22.75586 -2.0588,-7.71607 -4.0518,-15.5635 -5.9765,-23.54492 -1.9248,-7.98143 -3.7796,-16.096394 -5.5645,-24.347658 -0.599,-2.769209 -1.1417,-5.645374 -1.7246,-8.445313 a 179.80716,179.80716 0 0 0 -5.9844,-0.269531 z"
             style="fill:#ea4335;fill-opacity:1;stroke:#000000;stroke-width:10;stroke-miterlimit:4;stroke-dasharray:none;stroke-opacity:1"
             inkscape:connector-curvature="0" />
          <path
             id="path5838"
             d="m -2285.6582,246.39648 c -0.9173,-0.90108 -1.7215,-1.82607 -2.6543,-2.72265 -5.8205,-5.59475 -11.9414,-11.09708 -18.3652,-16.42969 -3.2119,-2.6663 -6.4999,-5.29052 -9.8633,-7.86328 -3.3635,-2.57276 -6.8029,-5.09415 -10.3184,-7.55469 -3.5155,-2.46054 -7.1073,-4.8598 -10.7754,-7.18945 -3.668,-2.32965 -7.4114,-4.58945 -11.2324,-6.76953 -3.821,-2.18009 -7.7188,-4.27917 -11.6933,-6.29102 -3.9746,-2.01185 -8.0258,-3.93678 -12.1543,-5.76172 -4.1285,-1.82494 -8.3343,-3.55056 -12.6172,-5.16992 -2.7924,-1.05577 -5.6711,-1.98934 -8.5293,-2.95117 0,0.004 0,0.008 0,0.0117 2.3098,7.19881 4.6788,14.26988 7.1054,21.2168 2.4267,6.94691 4.9115,13.76924 7.4493,20.46874 2.5378,6.69951 5.1282,13.27585 7.7715,19.73243 2.643,6.45657 5.3373,12.79358 8.08,19.01172 2.7428,6.21813 5.5345,12.31855 8.3711,18.30273 2.8367,5.98418 5.7198,11.85272 8.6446,17.60742 0.1488,0.29292 0.304,0.569 0.4531,0.86133 4.1289,-2.28411 8.2408,-4.6032 12.2168,-7.17773 5.0077,-3.24264 9.8959,-6.70694 14.664,-10.3711 4.7682,-3.66416 9.4169,-7.52833 13.9493,-11.57031 4.5323,-4.04199 8.9478,-8.26256 13.248,-12.63867 2.139,-2.17677 4.164,-4.50078 6.2461,-6.75196 z"
             style="fill:#ea4335;fill-opacity:1;stroke:#000000;stroke-width:10;stroke-miterlimit:4;stroke-dasharray:none;stroke-opacity:1"
             inkscape:connector-curvature="0" />
          <path
             id="path5824"
             d="m -2420.2422,76.630859 c 0.5829,2.799939 1.1256,5.676104 1.7246,8.445313 1.7849,8.251264 3.6397,16.366228 5.5645,24.347658 1.9247,7.98142 3.9177,15.82885 5.9765,23.54492 2.0589,7.71607 4.1839,15.30066 6.3711,22.75586 2.1862,7.4512 4.4356,14.77366 6.7442,21.96875 2.8582,0.96183 5.7369,1.8954 8.5293,2.95117 4.2829,1.61936 8.4887,3.34498 12.6172,5.16992 4.1285,1.82494 8.1797,3.74987 12.1543,5.76172 3.9745,2.01185 7.8723,4.11093 11.6933,6.29102 3.821,2.18008 7.5644,4.43988 11.2324,6.76953 3.6681,2.32965 7.2599,4.72891 10.7754,7.18945 3.5155,2.46054 6.9549,4.98193 10.3184,7.55469 3.3634,2.57276 6.6514,5.19698 9.8633,7.86328 6.4238,5.33261 12.5447,10.83494 18.3652,16.42969 0.9328,0.89658 1.737,1.82157 2.6543,2.72265 2.1037,-2.27452 4.2641,-4.47696 6.3105,-6.82226 4.072,-4.66654 8.0317,-9.46759 11.8789,-14.38086 3.8476,-4.91327 7.5825,-9.93839 11.209,-15.05469 0.9163,-1.29265 1.7637,-2.63754 2.666,-3.9414 A 179.80716,179.80716 0 0 0 -2420.2422,76.630859 Z"
             style="fill:#fbbc05;fill-opacity:1;stroke:#000000;stroke-width:10;stroke-miterlimit:4;stroke-dasharray:none;stroke-opacity:1"
             inkscape:connector-curvature="0" />
          <path
             id="path5858"
             d="m -2518.7285,332.53906 c -1.1933,0.52496 -2.4638,0.94703 -3.6387,1.4961 -4.8514,2.26719 -9.5459,4.73757 -14.0918,7.39062 -4.5458,2.65305 -8.9414,5.48942 -13.1914,8.49219 -4.25,3.00277 -8.3544,6.17194 -12.3184,9.48828 -2.3514,1.96738 -4.5531,4.08669 -6.8066,6.1543 a 179.80716,179.80716 0 0 0 56.6348,48.33203 c -0.7058,-3.37877 -1.393,-6.77657 -1.9961,-10.26367 -0.734,-4.24426 -1.3906,-8.56923 -1.9649,-12.97657 -0.5742,-4.40733 -1.0667,-8.89745 -1.4726,-13.4707 -0.406,-4.57325 -0.7259,-9.23066 -0.9551,-13.97266 -0.2292,-4.74199 -0.3681,-9.56884 -0.4121,-14.48242 -0.044,-4.91358 0.01,-9.91395 0.1562,-15.00195 0.011,-0.38842 0.044,-0.7961 0.057,-1.18555 z"
             style="fill:#4285f4;fill-opacity:1;stroke:#000000;stroke-width:10;stroke-miterlimit:4;stroke-dasharray:none;stroke-opacity:1"
             inkscape:connector-curvature="0" />
          <path
             id="circle5811"
             d="m -2285.6582,246.39648 c 4.8068,4.72178 9.5239,9.47473 13.9082,14.26758 5.221,5.7075 10.1422,11.4346 14.7676,17.10547 2.7022,3.31297 5.0879,6.53679 7.5879,9.79688 a 179.80716,179.80716 0 0 0 2.9746,-31.39649 179.80716,179.80716 0 0 0 -7.1739,-49.97265 c -0.9021,1.30386 -1.7497,2.64875 -2.666,3.9414 -3.6265,5.1163 -7.3615,10.14142 -11.209,15.05469 -3.8471,4.91327 -7.8069,9.71432 -11.8789,14.38086 -2.0464,2.3453 -4.2068,4.54774 -6.3105,6.82226 z"
             style="fill:#34a853;fill-opacity:1;stroke:#000000;stroke-width:10;stroke-miterlimit:4;stroke-dasharray:none;stroke-opacity:1"
             inkscape:connector-curvature="0" />
        </g>
      </g>
      <g
         style="font-style:normal;font-weight:normal;font-size:40px;line-height:125%;font-family:sans-serif;letter-spacing:0px;word-spacing:0px;fill:#000000;fill-opacity:1;stroke:none;stroke-width:1px;stroke-linecap:butt;stroke-linejoin:miter;stroke-opacity:1"
         id="text4147"
         transform="translate(7.475859,21.000426)">
        <path
           inkscape:connector-curvature="0"
           d="m 151.68,1000.1389 q 0.68,0 1.12,0.48 0.48,0.44 0.48,1.12 0,0.64 -0.48,1.12 -0.44,0.48 -1.12,0.48 l -31.2,0 q -0.64,0 -1.12,-0.48 -0.48,-0.48 -0.48,-1.12 0,-0.68 0.48,-1.12 0.48,-0.48 1.12,-0.48 l 6.8,0 -0.36,-0.75998 q -0.28,-0.64 -0.08,-1.32 0.24,-0.64 0.88,-0.96 0.64,-0.28 1.32,-0.08 0.64,0.24 0.96,0.88 l 1.04,2.23998 10.52,0 0.92,-2.15998 q 0.28,-0.64 0.96,-0.92 0.64,-0.28 1.28,0 0.64,0.28 0.92,0.96 0.28,0.64 0,1.28 l -0.36,0.83998 6.4,0 z m -24.92,13.6 q -0.64,0 -1.12,-0.48 -0.48,-0.48 -0.48,-1.12 0,-0.68 0.48,-1.12 0.48,-0.48 1.12,-0.48 l 4.56,0 q 0.68,0 1.12,0.48 0.48,0.44 0.48,1.12 0,0.64 -0.48,1.12 -0.44,0.48 -1.12,0.48 l -4.56,0 z m 6.16,3.68 q 0,0.64 -0.48,1.12 -0.44,0.48 -1.12,0.48 l -4.56,0 q -0.64,0 -1.12,-0.48 -0.48,-0.48 -0.48,-1.12 0,-0.68 0.48,-1.12 0.48,-0.48 1.12,-0.48 l 4.56,0 q 0.68,0 1.12,0.48 0.48,0.44 0.48,1.12 z m 9.6,1.28 q -0.64,0 -1.12,-0.48 -0.48,-0.48 -0.48,-1.12 l 0,-8.68 q 0,-0.68 0.48,-1.12 0.48,-0.48 1.12,-0.48 0.68,0 1.12,0.48 0.48,0.44 0.48,1.12 l 0,8.68 q 0,0.64 -0.48,1.12 -0.44,0.48 -1.12,0.48 z m -18.76,7.36 q 1.12,-1.12 2.28,-0.04 1.08,1.12 0,2.28 l -3.92,4 q -0.44,0.44 -1.12,0.48 -0.68,0 -1.16,-0.48 -0.48,-0.44 -0.48,-1.12 0,-0.68 0.48,-1.12 l 3.92,-4 z m 11.32,4.24 q 0.72,1.44 -0.68,2.16 -1.28,0.68 -2.16,-0.68 l -1.96,-3.76 q -0.72,-1.44 0.68,-2.16 0.6,-0.32 1.24,-0.12 0.6,0.2 0.92,0.8 l 1.96,3.76 z m 8.32,-0.12 q 0.48,0.76 0.04,1.6 -0.48,0.84 -1.4,0.84 -0.88,0 -1.36,-0.72 l -2.4,-3.76 q -0.36,-0.56 -0.2,-1.24 0.12,-0.64 0.68,-1 1.4,-0.8 2.24,0.52 l 2.4,3.76 z m 8.68,-0.2 q 1,1.2 -0.2,2.28 -1.12,1 -2.24,-0.2 l -3.2,-3.76 q -0.44,-0.52 -0.4,-1.16 0.04,-0.64 0.56,-1.08 1.2,-1.08 2.28,0.16 l 3.2,3.76 z m -19.2,-24.76 q 1.84,0 3.12,1.28 1.28,1.32 1.28,3.12 l 0,10.2 q 0,1.84 -1.28,3.12 -1.28,1.28 -3.12,1.28 l -2.2,0 q -1.6,0 -1.6,-1.6 0,-0.68 0.48,-1.12 0.48,-0.48 1.12,-0.48 l 2.2,0 q 1.2,0 1.2,-1.2 l 0,-10.2 q 0,-1.2 -1.2,-1.2 l -7.68,0 q -1.2,0 -1.2,1.2 l 0,13 q 0,1.6 -1.6,1.6 -1.6,0 -1.6,-1.6 l 0,-13 q 0,-1.8 1.28,-3.12 1.28,-1.28 3.12,-1.28 l 7.68,0 z m 9.56,19.08 q -0.64,0 -1.12,-0.48 -0.48,-0.48 -0.48,-1.12 0,-0.68 0.48,-1.12 0.48,-0.48 1.12,-0.48 l 4.16,0 q 1.6,0 1.6,-1.6 l 0,-12.84 q 0,-1.6 1.6,-1.6 1.6,0 1.6,1.6 l 0,12.84 q 0,1.92 -1.32,3.32 -1.4,1.48 -3.48,1.48 l -4.16,0 z"
           style="font-style:normal;font-variant:normal;font-weight:normal;font-stretch:normal;font-family:'BENMO Xuyuan Regular';-inkscape-font-specification:'BENMO Xuyuan Regular, '"
           id="path4170" />
        <path
           inkscape:connector-curvature="0"
           d="m 192.28,1028.0989 q 1.6,0 1.6,1.6 0,0.64 -0.48,1.12 -0.44,0.48 -1.12,0.48 l -32.48,0 q -0.64,0 -1.12,-0.48 -0.48,-0.48 -0.48,-1.12 0,-1.6 1.6,-1.6 l 32.48,0 z m -31.24,-19.16 q -0.48,0.4 -1.12,0.4 -0.72,0 -1.12,-0.52 -0.44,-0.52 -0.4,-1.16 0,-0.68 0.52,-1.08 L 169,997.61892 q 1.24,-1.04 2.28,0.16 0.44,0.48 0.4,1.12 -0.04,0.68 -0.56,1.11998 l -10.08,8.92 z m 12.28,-6.6 q -0.64,0 -1.12,-0.48 -0.48,-0.48 -0.48,-1.12 0,-0.68 0.48,-1.11998 0.48,-0.48 1.12,-0.48 l 10.12,0 q 1.64,0 2.24,1.51998 0.6,1.48 -0.6,2.6 l -2.96,2.84 3.2,0 q 2.32,0 3.96,1.64 1.64,1.64 1.64,3.96 l 0,8.52 q 0,2.32 -1.64,3.96 -1.64,1.64 -3.96,1.64 l -8.8,0 q -0.64,0 -1.12,-0.48 -0.48,-0.48 -0.48,-1.12 l 0,-6.48 -5.92,0 q -1.6,0 -1.6,-1.6 0,-1.6 1.6,-1.6 l 5.92,0 0,-2.52 q 0,-0.68 0.48,-1.12 0.48,-0.48 1.12,-0.48 0.68,0 1.12,0.48 0.48,0.44 0.48,1.12 l 0,2.52 5.96,0 q 0.68,0 1.12,0.48 0.48,0.44 0.48,1.12 0,0.64 -0.48,1.12 -0.44,0.48 -1.12,0.48 l -5.96,0 0,4.88 7.2,0 q 1,0 1.68,-0.72 0.72,-0.68 0.72,-1.68 l 0,-8.52 q 0,-1 -0.72,-1.68 -0.68,-0.72 -1.68,-0.72 l -17.6,0 q -1,0 -1.68,0.72 -0.72,0.68 -0.72,1.68 l 0,8.52 q 0,1 0.72,1.68 0.68,0.72 1.68,0.72 l 4.28,0 q 0.68,0 1.12,0.48 0.48,0.44 0.48,1.12 0,0.64 -0.48,1.12 -0.44,0.48 -1.12,0.48 l -4.28,0 q -2.32,0 -3.96,-1.64 -1.64,-1.64 -1.64,-3.96 l 0,-8.52 q 0,-2.32 1.64,-3.96 1.64,-1.64 3.96,-1.64 l 9.76,0 3.96,-3.76 -8.12,0 z"
           style="font-style:normal;font-variant:normal;font-weight:normal;font-stretch:normal;font-family:'BENMO Xuyuan Regular';-inkscape-font-specification:'BENMO Xuyuan Regular, '"
           id="path4172" />
        <path
           inkscape:connector-curvature="0"
           d="m 232.2,1004.5789 q 0.68,0 1.16,0.48 0.48,0.52 0.48,1.2 0,1.64 -1.64,1.64 l -14.4,0 0,3 q 0,0.68 -0.48,1.2 -0.48,0.48 -1.16,0.48 -0.68,0 -1.2,-0.48 -0.48,-0.52 -0.48,-1.2 l 0,-3 -14.32,0 q -0.68,0 -1.2,-0.48 -0.48,-0.48 -0.48,-1.16 0,-0.68 0.48,-1.2 0.52,-0.48 1.2,-0.48 l 14.32,0 0,-5.71998 q 0,-0.68 0.48,-1.16 0.52,-0.48 1.2,-0.48 1.64,0 1.64,1.64 l 0,5.71998 14.4,0 z m 0.6,25.28 q 0.48,0.52 0.44,1.2 0,0.68 -0.52,1.16 -1.24,1.08 -2.32,-0.08 l -14.28,-15.04 -14.24,15.04 q -0.48,0.52 -1.16,0.52 -0.68,0.04 -1.2,-0.44 -1.16,-1.16 -0.04,-2.36 l 14.36,-15.12 q 0.92,-1 2.28,-1 1.4,0 2.32,1 l 14.36,15.12 z"
           style="font-style:normal;font-variant:normal;font-weight:normal;font-stretch:normal;font-family:'BENMO Xuyuan Regular';-inkscape-font-specification:'BENMO Xuyuan Regular, '"
           id="path4174" />
        <path
           inkscape:connector-curvature="0"
           d="m 245.12,1012.6589 q -0.32,-0.52 -0.2,-1.12 0.12,-0.64 0.64,-0.96 l 3.48,-2.4 q 2.4,-1.64 5,-0.16 l 3.24,1.92 q 0.56,0.32 0.68,0.88 0.16,0.64 -0.16,1.16 -0.72,1.28 -2.04,0.56 l -2.6,-1.56 0,1.52 q 0,0.64 -0.48,1.12 -0.44,0.48 -1.12,0.48 -0.64,0 -1.12,-0.48 -0.48,-0.48 -0.48,-1.12 l 0,-1.28 -2.72,1.84 q -1.2,0.72 -2.12,-0.4 z m 1.36,-5.8 q -1.48,0 -1.48,-1.48 0,-0.64 0.44,-1.08 0.44,-0.44 1.04,-0.44 l 3.48,0 q 0.2,-1.32 1.6,-1.32 1.36,0 1.56,1.32 l 3.32,0 q 1.52,0 1.52,1.52 0,1.48 -1.52,1.48 l -9.96,0 z m 12.92,5.48 q -0.8,-1.24 0.44,-2.04 l 3.28,-2.16 q 2.52,-1.56 5,0 l 3.28,2.16 q 1.28,0.76 0.44,2.04 -0.76,1.28 -2.08,0.48 l -2.52,-1.68 0,1.24 q 0,1.6 -1.6,1.6 -1.6,0 -1.6,-1.6 l 0,-1.24 -2.56,1.68 q -1.24,0.76 -2.08,-0.48 z m 1.36,-5.48 q -1.52,0 -1.52,-1.48 0,-1.52 1.52,-1.52 l 3.28,0 q 0.2,-1.32 1.56,-1.32 1.4,0 1.6,1.32 l 3.52,0 q 1.52,0 1.52,1.52 0,1.48 -1.52,1.48 l -9.96,0 z M 272,998.73892 q 0.68,0 1.12,0.48 0.48,0.44 0.48,1.11998 0,1.6 -1.6,1.6 l -26.8,0 q -0.64,0 -1.12,0.48 -0.48,0.44 -0.48,1.12 l 0,13.12 q 0,3.92 -0.84,8.12 -0.2,1 -0.8,3.68 l -0.6,2.64 q -0.2,0.64 -0.72,1 -0.6,0.36 -1.24,0.2 -0.64,-0.16 -0.96,-0.72 -0.36,-0.56 -0.2,-1.2 0,0.76 1.4,-6.24 0.76,-4 0.76,-7.48 l 0,-13.12 q 0,-2 1.4,-3.4 1.44,-1.39998 3.4,-1.39998 l 10.24,0 q 0,-0.72 0.48,-1.24 0.52,-0.48 1.2,-0.48 0.72,0 1.24,0.48 0.48,0.52 0.48,1.24 l 13.16,0 z m -15.76,14.39998 q 0.64,0 1.12,0.48 0.48,0.44 0.48,1.08 l 9.76,0 q 1.84,0 3.12,1.28 1.28,1.32 1.28,3.12 l 0,1.16 q 0,1.8 -1.28,3.08 -1.28,1.32 -3.12,1.32 l -17.88,0 q -1.84,0 -3.12,-1.32 -1.28,-1.28 -1.28,-3.08 l 0,-1.16 q 0,-1.8 1.28,-3.12 1.28,-1.28 3.12,-1.28 l 4.92,0 q 0.08,-1.56 1.6,-1.56 z m -7.72,7.12 q 0,0.64 0.48,1.12 0.48,0.48 1.12,0.48 l 7.28,0 0,-1 -6.4,0 q -1.2,0 -1.2,-1.2 0,-1.2 1.2,-1.2 l 6.4,0 0,-0.96 -7.28,0 q -0.64,0 -1.12,0.48 -0.48,0.44 -0.48,1.12 l 0,1.16 z m 20.4,-1.16 q 0,-0.68 -0.48,-1.12 -0.44,-0.48 -1.12,-0.48 l -6.72,0 0,0.96 5.72,0 q 1.2,0 1.2,1.2 0,1.2 -1.2,1.2 l -5.72,0 0,1 6.72,0 q 0.68,0 1.12,-0.48 0.48,-0.48 0.48,-1.12 l 0,-1.16 z m 1.96,6.8 q 0.8,0.52 0.52,1.52 -0.32,0.92 -1.32,0.92 l -6.28,0 q -1,0 -1.28,-0.92 -0.36,-0.96 0.48,-1.52 l 0.88,-0.64 q 0.88,-0.68 1.52,0.24 0.24,0.32 0.2,0.64 l 2.72,0 q 0.08,-0.44 0.24,-0.6 0.64,-0.92 1.52,-0.24 l 0.8,0.6 z m 0.2,3.08 q 1.4,0 1.4,1.4 0,1.4 -1.4,1.4 l -9.44,0 q -1.4,0 -2.4,-1 -1,-1 -1,-2.4 l 0,-1.96 q 0,-1.4 1.4,-1.4 1.4,0 1.4,1.4 l 0,1.96 q 0,0.6 0.6,0.6 l 9.44,0 z m -15.8,-3.68 q 0.6,-0.28 1.24,0 0.6,0.24 0.84,0.84 0.64,1.48 -0.84,2.12 l -10.04,4.32 q -1.48,0.52 -2.12,-0.84 -0.56,-1.48 0.84,-2.12 l 10.08,-4.32 z"
           style="font-style:normal;font-variant:normal;font-weight:normal;font-stretch:normal;font-family:'BENMO Xuyuan Regular';-inkscape-font-specification:'BENMO Xuyuan Regular, '"
           id="path4176" />
        <path
           inkscape:connector-curvature="0"
           d="m 281.88,1001.6189 q -0.64,0 -1.12,-0.48 -0.48,-0.48 -0.48,-1.12 0,-0.67998 0.48,-1.11998 0.48,-0.48 1.12,-0.48 l 28.32,0 q 0.68,0 1.12,0.48 0.48,0.44 0.48,1.11998 0,0.64 -0.48,1.12 -0.44,0.48 -1.12,0.48 l -28.32,0 z m 30.48,26.64 q 0.68,0 1.12,0.48 0.48,0.44 0.48,1.12 0,0.64 -0.48,1.12 -0.44,0.48 -1.12,0.48 l -32.64,0 q -0.64,0 -1.12,-0.48 -0.48,-0.48 -0.48,-1.12 0,-0.68 0.48,-1.12 0.48,-0.48 1.12,-0.48 l 32.64,0 z m -16.32,-0.84 q -0.64,0 -1.12,-0.48 -0.48,-0.48 -0.48,-1.12 l 0,-9.56 -11.88,0 q -0.64,0 -1.12,-0.48 -0.48,-0.48 -0.48,-1.12 0,-1.6 1.6,-1.6 l 11.88,0 0,-9 q 0,-0.68 0.48,-1.12 0.48,-0.48 1.12,-0.48 0.68,0 1.12,0.48 0.48,0.44 0.48,1.12 l 0,9 11.88,0 q 1.6,0 1.6,1.6 0,0.64 -0.48,1.12 -0.44,0.48 -1.12,0.48 l -11.88,0 0,9.56 q 0,0.64 -0.48,1.12 -0.44,0.48 -1.12,0.48 z"
           style="font-style:normal;font-variant:normal;font-weight:normal;font-stretch:normal;font-family:'BENMO Xuyuan Regular';-inkscape-font-specification:'BENMO Xuyuan Regular, '"
           id="path4178" />
        <path
           inkscape:connector-curvature="0"
           d="m 325.28,1013.5789 q -1.84,0 -3.12,-1.32 -1.28,-1.28 -1.28,-3.08 l 0,-7.88 q 0,-0.68 0.48,-1.12 0.48,-0.47998 1.12,-0.47998 0.68,0 1.12,0.47998 0.48,0.44 0.48,1.12 l 0,7.88 q 0,1.2 1.2,1.2 l 6.56,0 q 0.68,0 1.12,0.48 0.48,0.44 0.48,1.12 0,0.64 -0.48,1.12 -0.44,0.48 -1.12,0.48 l -6.56,0 z m 14.96,0 q -0.64,0 -1.12,-0.48 -0.48,-0.48 -0.48,-1.12 0,-0.68 0.48,-1.12 0.48,-0.48 1.12,-0.48 l 6.64,0 q 1.2,0 1.2,-1.2 l 0,-7.88 q 0,-0.68 0.48,-1.12 0.48,-0.47998 1.12,-0.47998 0.68,0 1.12,0.47998 0.48,0.44 0.48,1.12 l 0,7.88 q 0,1.8 -1.28,3.08 -1.28,1.32 -3.12,1.32 l -6.64,0 z m -4.16,13.6 q -0.64,0 -1.12,-0.48 -0.48,-0.48 -0.48,-1.12 l 0,-26.79998 q 0,-0.68 0.48,-1.12 0.48,-0.48 1.12,-0.48 0.68,0 1.12,0.48 0.48,0.44 0.48,1.12 l 0,26.79998 q 0,0.64 -0.48,1.12 -0.44,0.48 -1.12,0.48 z m 16.08,-1.44 q 0.08,2.24 -0.64,3.48 -0.6,1.12 -1.72,1.72 -1.08,0.64 -2.92,0.64 l -21.04,0 q -2.24,0.08 -3.48,-0.64 -1.12,-0.6 -1.72,-1.72 -0.72,-1.24 -0.64,-3.48 l 0,-6.48 q 0,-1.6 1.6,-1.6 1.6,0 1.6,1.6 l 0,6.56 q -0.08,1.36 0.2,1.8 0.2,0.36 0.56,0.56 0.32,0.2 1.8,0.2 l 20.64,0 q 1.48,0 1.8,-0.2 0.36,-0.2 0.56,-0.56 0.28,-0.44 0.2,-1.8 l 0,-6.56 q 0,-1.6 1.6,-1.6 1.6,0 1.6,1.6 l 0,6.48 z"
           style="font-style:normal;font-variant:normal;font-weight:normal;font-stretch:normal;font-family:'BENMO Xuyuan Regular';-inkscape-font-specification:'BENMO Xuyuan Regular, '"
           id="path4180" />
        <path
           inkscape:connector-curvature="0"
           d="m 368.84,1012.8989 q -1.96,0 -3.4,-1.4 -1.4,-1.44 -1.4,-3.4 l 0,-5.16 q 0,-2 1.4,-3.39998 1.44,-1.4 3.4,-1.4 l 14.52,0 q 2,0 3.4,1.4 1.4,1.39998 1.4,3.39998 l 0,5.16 q 0,1.96 -1.4,3.4 -1.4,1.4 -3.4,1.4 l -14.52,0 z m -1.6,-4.8 q 0,0.64 0.48,1.12 0.48,0.48 1.12,0.48 l 14.52,0 q 0.68,0 1.12,-0.48 0.48,-0.48 0.48,-1.12 l 0,-5.16 q 0,-0.68 -0.48,-1.12 -0.44,-0.48 -1.12,-0.48 l -14.52,0 q -0.64,0 -1.12,0.48 -0.48,0.44 -0.48,1.12 l 0,5.16 z m 2.24,6.96 q 2,0 3.4,1.4 1.4,1.4 1.4,3.4 l 0,7.4 q 0,2 -1.4,3.4 -1.4,1.4 -3.4,1.4 l -5.72,0 q -1.96,0 -3.4,-1.4 -1.4,-1.44 -1.4,-3.4 l 0,-7.4 q 0,-2 1.4,-3.4 1.44,-1.4 3.4,-1.4 l 5.72,0 z m 1.6,4.8 q 0,-0.68 -0.48,-1.12 -0.44,-0.48 -1.12,-0.48 l -5.72,0 q -0.64,0 -1.12,0.48 -0.48,0.44 -0.48,1.12 l 0,7.4 q 0,0.64 0.48,1.12 0.48,0.48 1.12,0.48 l 5.72,0 q 0.68,0 1.12,-0.48 0.48,-0.48 0.48,-1.12 l 0,-7.4 z m 17.24,-4.8 q 2,0 3.4,1.4 1.4,1.4 1.4,3.4 l 0,7.4 q 0,1.96 -1.4,3.4 -1.4,1.4 -3.4,1.4 l -5.76,0 q -1.96,0 -3.4,-1.4 -1.4,-1.44 -1.4,-3.4 l 0,-7.4 q 0,-2 1.4,-3.4 1.44,-1.4 3.4,-1.4 l 5.76,0 z m 1.6,4.8 q 0,-0.68 -0.48,-1.12 -0.44,-0.48 -1.12,-0.48 l -5.76,0 q -0.64,0 -1.12,0.48 -0.48,0.44 -0.48,1.12 l 0,7.4 q 0,0.64 0.48,1.12 0.48,0.48 1.12,0.48 l 5.76,0 q 0.68,0 1.12,-0.48 0.48,-0.48 0.48,-1.12 l 0,-7.4 z"
           style="font-style:normal;font-variant:normal;font-weight:normal;font-stretch:normal;font-family:'BENMO Xuyuan Regular';-inkscape-font-specification:'BENMO Xuyuan Regular, '"
           id="path4182" />
      </g>
    </g>
  </g>
</svg>
